<svg width="256" height="277" viewBox="0 0 256 277" fill="none" xmlns="http://www.w3.org/2000/svg">
  <g clip-path="url(#clip0_0_1)">
    <path fill-rule="evenodd" clip-rule="evenodd"
      d="M172.649 17.9593C221.312 36.0984 255.985 83.0203 255.985 138.052C255.985 193.085 221.312 239.991 172.649 258.146V238.118C210.842 221.013 237.473 182.636 237.473 138.052C237.473 93.4691 210.842 55.092 172.649 37.9873V17.9593ZM153.253 96.1675H159.169V76.3943C149.808 71.6421 139.203 68.9588 127.985 68.9588C124.795 68.9588 121.649 69.1836 118.579 69.6034V107.681H124.495V138.592H118.579V170.988H110.746V138.592H104.829V107.681H110.746V71.1325C80.9698 78.7929 58.9525 105.852 58.9525 138.052C58.9525 160.239 69.407 179.967 85.6429 192.62V180.357H79.7267V149.446H85.6429V108.25H93.4763V149.446H99.3925V180.357H93.4763V197.912C103.631 203.788 115.404 207.146 127.985 207.146C129.648 207.146 131.31 207.086 132.943 206.966V173.851H127.026V142.939H132.943V109.884H140.776V142.939H146.692V173.851H140.776V205.947C161.67 202.019 179.254 188.662 188.945 170.463H220.173C210.767 197.237 190.053 218.689 163.767 229.048V276.09H140.776V234.984C136.582 235.539 132.314 235.824 127.97 235.824C123.627 235.824 119.358 235.539 115.164 234.984V276.09H92.1732V229.048C55.927 214.762 30.2701 179.383 30.2701 138.037C30.2701 96.6922 55.957 61.3283 92.2032 47.0419V0H115.194V41.1054C119.388 40.5507 123.656 40.2659 128 40.2659C132.344 40.2659 136.612 40.5507 140.806 41.1054V0H163.797V47.0419C190.083 57.4157 210.797 78.8528 220.203 105.627H188.975C183.732 95.7777 176.169 87.3378 167.017 81.0565V96.1675H172.933V127.079H167.017V164.017H159.184V127.079H153.268V96.1675H153.253ZM83.3363 258.131C34.6735 239.991 0 193.07 0 138.052C0 83.0353 34.6735 36.0984 83.3363 17.9593V37.9873C45.143 55.0771 18.5125 93.4541 18.5125 138.052C18.5125 182.651 45.143 221.013 83.3363 238.118V258.146V258.131Z"
      fill="url(#paint0_linear_0_1)" fill-opacity="0.1" />
  </g>
  <g clip-path="url(#clip1_0_1)">
    <path
      d="M178.938 144.58C178.938 145.434 178.792 146.217 178.513 146.934C178.234 147.652 177.831 148.275 177.304 148.805C176.782 149.333 176.153 149.746 175.419 150.036C174.689 150.327 173.871 150.475 172.963 150.479C172.078 150.475 171.268 150.327 170.538 150.041C169.814 149.75 169.179 149.34 168.652 148.815C168.121 148.285 167.716 147.661 167.427 146.944C167.139 146.231 166.993 145.438 166.988 144.58C166.993 143.746 167.139 142.97 167.427 142.257C167.716 141.539 168.121 140.913 168.652 140.374C169.179 139.835 169.811 139.418 170.538 139.113C171.268 138.813 172.078 138.66 172.963 138.656C173.869 138.66 174.689 138.813 175.419 139.113C176.153 139.408 176.782 139.83 177.304 140.365C177.831 140.899 178.234 141.528 178.513 142.245C178.792 142.963 178.938 143.741 178.938 144.583M182.998 144.583C182.993 143.089 182.75 141.755 182.268 140.576C181.787 139.392 181.1 138.388 180.211 137.561C179.321 136.731 178.263 136.1 177.037 135.664C175.817 135.223 174.453 135.007 172.963 135.003C171.473 135.007 170.114 135.225 168.889 135.664C167.663 136.1 166.607 136.731 165.715 137.561C164.826 138.388 164.139 139.392 163.658 140.576C163.181 141.755 162.933 143.092 162.928 144.583C162.933 146.074 163.181 147.41 163.658 148.59C164.139 149.774 164.826 150.775 165.715 151.605C166.605 152.435 167.661 153.065 168.889 153.502C170.114 153.942 171.473 154.158 172.963 154.163C174.453 154.158 175.817 153.94 177.037 153.502C178.263 153.065 179.319 152.435 180.211 151.605C181.1 150.775 181.787 149.774 182.268 148.59C182.75 147.41 182.993 146.074 182.998 144.583ZM151.995 153.72H156.11V139.073H161.765V135.443H146.342V139.073H151.995V153.72ZM138.165 148.55C139.347 148.531 140.382 148.353 141.271 148.02C142.16 147.68 142.899 147.22 143.495 146.623C144.089 146.032 144.535 145.342 144.831 144.557C145.126 143.769 145.276 142.916 145.276 141.999C145.276 141.082 145.131 140.276 144.833 139.488C144.537 138.7 144.094 138.004 143.5 137.399C142.907 136.794 142.17 136.32 141.276 135.971C140.387 135.626 139.352 135.448 138.162 135.443H129.403V153.717H133.544V148.547H138.162L138.165 148.55ZM133.547 139.31H138.165C138.82 139.314 139.369 139.448 139.81 139.701C140.248 139.957 140.58 140.292 140.806 140.712C141.028 141.129 141.138 141.582 141.138 142.079C141.138 142.576 141.028 143.028 140.811 143.441C140.589 143.854 140.263 144.184 139.819 144.433C139.381 144.686 138.827 144.81 138.165 144.82H133.547V139.307V139.31ZM113.534 135.443H108.757V135.652L115.871 146.461V153.717H120.012V146.461L127.443 135.652V135.443H122.692L117.993 142.7L113.534 135.443ZM101.349 138.942C101.831 138.946 102.253 139.033 102.596 139.2C102.947 139.364 103.233 139.582 103.459 139.856C103.686 140.126 103.853 140.426 103.965 140.747C104.074 141.068 104.132 141.392 104.136 141.708C104.136 141.999 104.084 142.294 103.977 142.592C103.869 142.892 103.707 143.167 103.486 143.42C103.264 143.673 102.98 143.877 102.637 144.029C102.291 144.186 101.881 144.264 101.402 144.269H96.6765V138.942H101.349ZM109.021 153.403L103.924 147.347C104.809 147.033 105.531 146.669 106.091 146.254C106.654 145.842 107.09 145.389 107.395 144.897C107.705 144.4 107.918 143.879 108.042 143.326C108.161 142.773 108.223 142.198 108.223 141.603C108.223 140.794 108.073 140.018 107.779 139.284C107.484 138.548 107.045 137.896 106.466 137.317C105.886 136.742 105.169 136.285 104.315 135.95C103.457 135.619 102.47 135.451 101.347 135.441H92.5353V153.717H96.6765V147.713H99.6757L104.427 153.717H109.019V153.403H109.021ZM87.493 148.679C87.2093 148.953 86.8874 149.202 86.5202 149.415C86.1531 149.633 85.7645 149.816 85.3473 149.968C84.9348 150.116 84.5248 150.233 84.1123 150.313C83.6975 150.39 83.3017 150.43 82.9274 150.43C82.0596 150.425 81.2991 150.313 80.6482 150.095C80.0021 149.872 79.449 149.572 78.9984 149.195C78.5478 148.812 78.1807 148.381 77.9017 147.893C77.6228 147.406 77.4154 146.892 77.2866 146.353C77.1579 145.814 77.0911 145.274 77.0864 144.74C77.0816 144.201 77.1436 143.657 77.2771 143.108C77.413 142.555 77.6276 142.025 77.9136 141.521C78.2045 141.017 78.5812 140.564 79.0366 140.168C79.4967 139.767 80.0498 139.455 80.6959 139.218C81.3372 138.989 82.0811 138.871 82.925 138.867C83.4257 138.867 83.924 138.913 84.4342 139.019C84.9372 139.124 85.4212 139.289 85.8861 139.511C86.351 139.739 86.7706 140.025 87.1473 140.381L89.7483 137.849C88.7875 136.923 87.7314 136.217 86.5775 135.744C85.4236 135.265 84.2053 135.026 82.9274 135.026C81.5661 135.036 80.343 135.218 79.2726 135.579C78.1974 135.941 77.2676 136.44 76.476 137.075C75.6893 137.706 75.0337 138.438 74.5163 139.26C74.0037 140.083 73.6175 140.96 73.3672 141.889C73.1145 142.82 72.9952 143.757 73 144.712C73.0048 145.713 73.124 146.683 73.3624 147.614C73.6008 148.545 73.968 149.408 74.4639 150.203C74.9597 151 75.6011 151.692 76.3783 152.287C77.1579 152.883 78.0901 153.349 79.1748 153.68C80.2596 154.015 81.5113 154.184 82.9274 154.189C84.3126 154.193 85.6071 153.975 86.8159 153.539C88.0246 153.101 89.107 152.421 90.0678 151.499L87.493 148.681V148.679Z"
      fill="url(#paint1_radial_0_1)" />
    <path
      d="M180.802 157.804C180.487 157.443 180.153 157.161 179.803 156.957C179.455 156.751 179.076 156.608 178.673 156.526C178.27 156.441 177.831 156.402 177.359 156.404C176.978 156.404 176.608 156.444 176.251 156.519C175.895 156.594 175.564 156.706 175.254 156.859C174.949 157.009 174.68 157.194 174.451 157.417C174.219 157.637 174.041 157.895 173.907 158.188C173.778 158.479 173.709 158.807 173.704 159.168C173.704 159.595 173.762 159.958 173.888 160.263C174.014 160.568 174.191 160.821 174.42 161.025C174.651 161.229 174.918 161.393 175.228 161.52C175.535 161.644 175.872 161.743 176.234 161.811C176.599 161.878 176.975 161.932 177.369 161.965C177.996 162.012 178.463 162.134 178.773 162.326C179.083 162.519 179.236 162.807 179.228 163.184C179.228 163.402 179.147 163.59 178.992 163.752C178.837 163.914 178.623 164.04 178.346 164.127C178.072 164.216 177.748 164.258 177.381 164.261C177.145 164.261 176.899 164.237 176.644 164.186C176.389 164.136 176.136 164.061 175.886 163.953C175.633 163.85 175.395 163.717 175.168 163.553C174.942 163.393 174.739 163.199 174.56 162.976L173.335 164.235C173.533 164.554 173.776 164.83 174.069 165.065C174.362 165.299 174.687 165.494 175.047 165.651C175.404 165.803 175.781 165.918 176.177 165.996C176.57 166.071 176.968 166.106 177.371 166.103C177.772 166.103 178.163 166.064 178.542 165.989C178.921 165.916 179.274 165.803 179.603 165.653C179.929 165.501 180.218 165.311 180.466 165.084C180.714 164.851 180.907 164.579 181.047 164.265C181.188 163.949 181.257 163.59 181.26 163.187C181.26 162.767 181.193 162.401 181.067 162.09C180.94 161.775 180.761 161.51 180.535 161.288C180.308 161.067 180.046 160.887 179.748 160.744C179.45 160.598 179.126 160.488 178.78 160.408C178.434 160.329 178.079 160.275 177.712 160.244C177.416 160.221 177.142 160.188 176.901 160.146C176.658 160.106 176.449 160.047 176.272 159.97C176.093 159.895 175.96 159.792 175.864 159.658C175.767 159.527 175.719 159.358 175.719 159.152C175.724 158.943 175.798 158.765 175.943 158.615C176.091 158.465 176.289 158.35 176.537 158.273C176.782 158.193 177.059 158.151 177.366 158.151C177.612 158.151 177.865 158.176 178.129 158.23C178.392 158.284 178.644 158.366 178.88 158.481C179.121 158.594 179.328 158.739 179.503 158.915L180.795 157.799L180.802 157.804ZM161.822 158.465C162.063 158.465 162.27 158.509 162.442 158.591C162.616 158.673 162.759 158.781 162.871 158.917C162.983 159.051 163.067 159.201 163.121 159.36C163.176 159.52 163.205 159.679 163.207 159.839C163.207 159.984 163.181 160.132 163.129 160.277C163.076 160.427 162.995 160.563 162.885 160.687C162.776 160.812 162.635 160.915 162.463 160.99C162.292 161.067 162.087 161.107 161.851 161.109H159.502V158.465H161.822ZM165.634 165.649L163.102 162.64C163.541 162.486 163.901 162.303 164.18 162.099C164.459 161.893 164.676 161.67 164.828 161.424C164.981 161.177 165.088 160.917 165.15 160.643C165.21 160.369 165.241 160.083 165.241 159.787C165.241 159.386 165.167 158.999 165.022 158.636C164.874 158.27 164.657 157.947 164.368 157.658C164.08 157.372 163.725 157.147 163.3 156.981C162.873 156.817 162.385 156.732 161.824 156.727H157.447V165.806H159.505V162.823H160.995L163.355 165.806H165.637V165.651L165.634 165.649ZM148.776 163.937H143.765V162.108H148.314V160.331H143.765V158.58H148.593V156.725H141.748V165.803H148.776V163.937ZM126.802 158.554H128.557C129.036 158.554 129.441 158.631 129.77 158.779C130.097 158.927 130.361 159.121 130.559 159.372C130.757 159.621 130.9 159.9 130.986 160.211C131.074 160.521 131.117 160.842 131.115 161.173C131.115 161.435 131.093 161.7 131.041 161.963C130.991 162.225 130.907 162.476 130.791 162.711C130.674 162.948 130.519 163.156 130.323 163.339C130.128 163.522 129.885 163.665 129.591 163.771C129.301 163.876 128.957 163.93 128.557 163.932H126.802V158.549V158.554ZM124.771 156.725V165.803H128.554C129.2 165.803 129.773 165.717 130.273 165.552C130.772 165.388 131.203 165.159 131.565 164.866C131.928 164.572 132.226 164.232 132.457 163.846C132.693 163.459 132.865 163.039 132.977 162.589C133.089 162.139 133.144 161.677 133.144 161.199C133.144 160.72 133.087 160.263 132.972 159.822C132.855 159.381 132.679 158.974 132.445 158.598C132.207 158.223 131.906 157.895 131.544 157.616C131.179 157.337 130.748 157.119 130.254 156.964C129.758 156.809 129.191 156.727 128.554 156.727H124.771V156.725ZM113.07 162.458H109.892L111.487 158.774L113.07 162.458ZM114.519 165.803H116.748L112.607 156.725H110.366L106.225 165.803H108.44L109.112 164.247H113.847L114.519 165.803ZM95.0768 158.462C95.3152 158.462 95.525 158.507 95.6967 158.589C95.8707 158.671 96.0137 158.779 96.1258 158.915C96.2379 159.049 96.3213 159.199 96.3761 159.358C96.431 159.517 96.4596 159.677 96.462 159.836C96.462 159.982 96.4357 160.129 96.3833 160.275C96.3308 160.425 96.2498 160.561 96.1401 160.685C96.0304 160.809 95.8898 160.913 95.7181 160.988C95.5465 161.065 95.3414 161.105 95.1054 161.107H92.7571V158.462H95.0792H95.0768ZM98.889 165.646L96.3571 162.638C96.7957 162.483 97.1557 162.301 97.4347 162.097C97.7136 161.89 97.9306 161.667 98.0831 161.421C98.2381 161.175 98.343 160.915 98.405 160.641C98.4646 160.366 98.4956 160.08 98.4956 159.785C98.4956 159.384 98.4217 158.997 98.2763 158.634C98.1284 158.268 97.9115 157.944 97.623 157.656C97.3345 157.37 96.9793 157.145 96.5549 156.978C96.1282 156.814 95.6394 156.73 95.0792 156.725H90.702V165.803H92.7595V162.821H94.2495L96.6098 165.803H98.8914V165.649L98.889 165.646ZM79.5921 165.801V158.526H82.4005V156.723H74.738V158.526H77.5465V165.801H79.5921Z"
      fill="url(#paint2_radial_0_1)" />
  </g>
  <defs>
    <linearGradient id="paint0_linear_0_1" x1="127.993" y1="0" x2="127.993" y2="276.09" gradientUnits="userSpaceOnUse">
      <stop stop-color="white" />
      <stop offset="0.775199" stop-color="white" stop-opacity="0" />
    </linearGradient>
    <radialGradient id="paint1_radial_0_1" cx="0" cy="0" r="1" gradientUnits="userSpaceOnUse"
      gradientTransform="translate(128.209 135) rotate(90) scale(27.2155 96.256)">
      <stop stop-color="white" />
      <stop offset="1" stop-color="#8D8E93" />
    </radialGradient>
    <radialGradient id="paint2_radial_0_1" cx="0" cy="0" r="1" gradientUnits="userSpaceOnUse"
      gradientTransform="translate(128.209 135) rotate(90) scale(27.2155 96.256)">
      <stop stop-color="white" />
      <stop offset="1" stop-color="#8D8E93" />
    </radialGradient>
    <clipPath id="clip0_0_1">
      <rect width="256" height="276.09" fill="white" />
    </clipPath>
    <clipPath id="clip1_0_1">
      <rect width="110" height="31.1034" fill="white" transform="translate(73 135)" />
    </clipPath>
  </defs>
</svg>